<?xml version="1.0" encoding="utf-8"?>
<!-- Generator: Adobe Illustrator 25.2.3, SVG Export Plug-In . SVG Version: 6.00 Build 0)  -->
<svg version="1.1" id="Layer_1" xmlns="http://www.w3.org/2000/svg" xmlns:xlink="http://www.w3.org/1999/xlink" x="0px" y="0px"
	 viewBox="0 0 650 650" style="enable-background:new 0 0 650 650;" xml:space="preserve">
<defs>
<style>
	path, polygon {
		fill: rgba(20, 20, 24, 0.95);
	}

	@media (prefers-color-scheme:dark) {
		path, polygon {
			fill: rgba(224, 215, 203, 0.95);
		}
	}
</style>
</defs>
<path d="M495,300h-5h-5h-5h-5h-5h-5h-5h-5h-5v-5v-5v-5v-5v-5v-5v-5v-5v-5v-5v-5v-5v-5v-5v-5v-5v-5v-5v-5v-5v-5v-5v-5v-5v-5v-5v-5v-5
	v-5v-5h-5h-5h-5h-5h-5h-5h-5h-5h-5h-5v-5v-5v-5v-5v-5v-5v-5v-5v-5v-5v-5v-5v-5v-5v-5v-5v-5v-5v-5v-5h-5h-5h-5h-5h-5h-5h-5h-5h-5h-5
	v5v5v5v5v5v5v5v5v5v5v5v5v5v5v5v5v5v5v5v5h-5h-5h-5h-5h-5h-5h-5h-5h-5h-5h-5h-5h-5h-5h-5h-5h-5h-5h-5h-5v-5v-5v-5v-5v-5v-5v-5v-5v-5
	v-5v-5v-5v-5v-5v-5v-5v-5v-5v-5v-5h-5h-5h-5h-5h-5h-5h-5h-5h-5h-5v5v5v5v5v5v5v5v5v5v5v5v5v5v5v5v5v5v5v5v5h-5h-5h-5h-5h-5h-5h-5h-5
	h-5h-5v5v5v5v5v5v5v5v5v5v5v5v5v5v5v5v5v5v5v5v5v5v5v5v5v5v5v5v5v5v5v5v5v5v5v5v5v5v5v5v5v5v5v5v5v5v5v5v5v5v5v5v5v5v5v5v5v5v5v5v5
	v5v5v5v5v5v5v5v5v5v5h5h5h5h5h5h5h5h5h5h5v5v5v5v5v5v5v5v5v5v5v5v5v5v5v5v5v5v5v5v5h5h5h5h5h5h5h5h5h5h5v-5v-5v-5v-5v-5v-5v-5v-5v-5
	v-5v-5v-5v-5v-5v-5v-5v-5v-5v-5v-5h5h5h5h5h5h5h5h5h5h5h5h5h5h5h5h5h5h5h5h5v5v5v5v5v5v5v5v5v5v5v5v5v5v5v5v5v5v5v5v5h5h5h5h5h5h5h5
	h5h5h5v-5v-5v-5v-5v-5v-5v-5v-5v-5v-5v-5v-5v-5v-5v-5v-5v-5v-5v-5v-5h5h5h5h5h5h5h5h5h5h5h5h5h5h5h5h5h5h5h5h5v-5v-5v-5v-5v-5v-5v-5
	v-5v-5v-5v-5v-5v-5v-5v-5v-5v-5v-5v-5v-5v-5v-5v-5v-5v-5v-5v-5v-5v-5v-5v-5v-5v-5v-5v-5v-5v-5v-5v-5v-5H495z M450,355v5v5v5v5v5v5v5
	v5v5v5v5v5v5v5v5v5v5v5v5h-5h-5h-5h-5h-5h-5h-5h-5h-5h-5h-5h-5h-5h-5h-5h-5h-5h-5h-5h-5h-5h-5h-5h-5h-5h-5h-5h-5h-5h-5h-5h-5h-5h-5
	h-5h-5h-5h-5h-5h-5h-5h-5h-5h-5h-5h-5h-5h-5h-5h-5v-5v-5v-5v-5v-5v-5v-5v-5v-5v-5v-5v-5v-5v-5v-5v-5v-5v-5v-5v-5h5h5h5h5h5h5h5h5h5
	h5h5h5h5h5h5h5h5h5h5h5h5h5h5h5h5h5h5h5h5h5h5h5h5h5h5h5h5h5h5h5h5h5h5h5h5h5h5h5h5h5V355z M200,295v-5v-5v-5v-5v-5v-5v-5v-5v-5v-5
	v-5v-5v-5v-5v-5v-5v-5v-5v-5h5h5h5h5h5h5h5h5h5h5h5h5h5h5h5h5h5h5h5h5h5h5h5h5h5h5h5h5h5h5h5h5h5h5h5h5h5h5h5h5v5v5v5v5v5v5v5v5v5v5
	v5v5v5v5v5v5v5v5v5v5h-5h-5h-5h-5h-5h-5h-5h-5h-5h-5h-5h-5h-5h-5h-5h-5h-5h-5h-5h-5h-5h-5h-5h-5h-5h-5h-5h-5h-5h-5h-5h-5h-5h-5h-5
	h-5h-5h-5h-5h-5V295z"/>
</svg>
