<?xml version="1.0" encoding="utf-8"?>
<!-- Generator: Adobe Illustrator 25.0.0, SVG Export Plug-In . SVG Version: 6.00 Build 0)  -->
<svg version="1.1" xmlns="http://www.w3.org/2000/svg" xmlns:xlink="http://www.w3.org/1999/xlink" x="0px" y="0px"
	 viewBox="0 0 468 70.4" style="enable-background:new 0 0 468 70.4;" xml:space="preserve">
<style type="text/css">
	.st0 { fill: #412b3d; }
</style>
<g>
	<g>
		<path class="st0" d="M252.3,13.8c0.1,1.3,0,2.5,0.2,3.6c0.2,0.8,0.3,1.6,0.1,2.4c-0.1,0.4,0.1,0.6,0.5,0.5c0.3-0.1,0.6,0,1,0
			c0.2,0,0.2,0,0.1-0.3c0-0.1,0.1-0.2,0.1-0.2c1,0,2,0,2.9,0c0.6,0,1.2,0.1,1.8,0.2c1.2,0.2,2.5,0.4,3.7,0.7c0.1,0,0.1,0,0.2,0
			c0.7,0.9,1.9,1.2,2.7,2.1c1.3,1.5,1,2.8,0.2,4.2c-0.2,0.4-0.5,0.8-0.8,1.1c-0.3,0.4-0.7,0.8-1,1.3c-0.7,0.8-0.7,1.9,0,2.6
			c0.2,0.2,0.7,0,0.6,0.5c0,0.1-0.2,0.3-0.3,0.3c-0.3,0.2-0.7,0.2-0.9,0.4c-0.6,0.4-1.1,0.9-1.8,1.2c-0.7,0.4-1.6,0.5-2.3,0.9
			c-1.2,0.6-2.5,1-3.3,2c-0.1,0.1-0.3,0.2-0.4,0.2c-0.6-0.1-0.9,0.3-1.2,0.7c-0.3,0.5-0.6,0.9-0.9,1.4c-0.2,0.5-0.3,1,0,1.6
			c0.2,0.6,0,1.4-0.1,2.1c-0.1,0.8-0.3,1.6,0,2.4c0.1,0.4,0,0.8-0.1,1.2c-0.1,0.5-0.2,1-0.2,1.5c-0.2,1.9-0.3,3.8-0.5,5.7
			c-0.1,1.7-0.2,3.5-0.5,5.2c-0.2,1.4-0.2,2.9-0.5,4.3c-0.2,0.8-0.6,1.6-1.1,2.4c-0.2,0.3-0.8,0.3-1.1,0.5c-0.5,0.3-0.7,0-1.1-0.3
			c-0.9-0.6-1.1-1.4-1.2-2.3c-0.1-2.4-0.3-4.8-0.4-7.1c0-1.1,0-2.2,0-3.3c0-0.9-0.1-1.8-0.1-2.7c0-1,0.1-2.1,0.1-3.1
			c0-1.2,0-2.4,0-3.6c0-0.2,0-0.4,0-0.6c0.1-0.8-0.4-1.2-1.1-1c-0.1,0-0.3,0.1-0.4,0.2c-0.6,0.4-1.2,0.6-1.9,0.5
			c-0.3,0-0.5-0.1-0.8-0.1c-0.2,0-0.4,0-0.7-0.1c-0.3,0-0.6,0-0.8-0.2c-0.7-0.7-1.4-1.4-2.1-2.1c-0.4-0.4-0.4-0.7-0.1-1.1
			c0,0,0.1-0.1,0.1-0.1c0.1-0.3,0.5-0.6,0.1-0.9c-0.3-0.2-0.8-0.2-1.1,0c-0.5,0.4-0.8,0.4-1.2-0.1c-0.1-0.1-0.3-0.2-0.4-0.3
			c-0.8-0.6-1.6-1.2-1.6-2.4c0-0.5-0.4-1-0.2-1.6c0.1-0.4-0.3-1-0.4-1.5c-0.2-1-0.4-2-0.6-2.9c-0.1-0.3-0.1-0.6-0.2-0.8
			c-0.4-1.2-0.7-2.5-1.2-3.7c-0.6-1.5-1.1-3-2.4-4.1c-0.8-0.7-0.6-1.8,0.3-2.4c0.6-0.3,1.2-0.7,1.9-0.2c0.5,0.3,1.1,0.6,1.6,0.9
			c0.1,0.1,0.3,0.2,0.3,0.3c0,1,0.8,1.5,1.2,2.2c0.2,0.4,0.4,0.9,0.7,1.3c0.2,0.5,0.5,1,0.8,1.4c0.1,0.1,0.3,0.1,0.5,0.1
			c0.9,0,1.6-0.7,2.4-0.9c0.2-0.1,0.4-0.2,0.5-0.1c0.5,0.4,0.9,0,1.4-0.1c0.5-0.2,0.9-0.4,1.4-0.6c0.9-0.3,1.7-0.6,2.6-0.9
			c0.5-0.2,0.8-0.5,0.8-1.1c-0.1-1.2-0.1-2.3-0.3-3.5c-0.3-1.4-0.2-2.8-0.6-4.2c-0.1-0.4-0.3-0.8-0.6-1.1c-0.3-0.4-0.8-0.8-1.2-1.1
			c-0.8-0.7-1-1.6-1.4-2.5c-0.4-0.9-0.1-1.6,0.4-2.2c0.5-0.7,1.1-1,2-1.2c1-0.2,1.6,0,2.2,0.7c0.8,0.9,1.8,1.6,2.6,2.4
			c0.3,0.3,0.5,0.9,0.9,1.1c0.4,0.3,0.8,0.6,1,1.1c0.1,0.2,0.2,0.4,0.2,0.6c0,0.3-0.1,0.6,0.4,0.4c0,0,0.2,0.1,0.2,0.2
			c0,0.2-0.1,0.5-0.1,0.7c0,0.1,0.1,0.2,0.2,0.3c0-0.1,0.1-0.2,0.1-0.3c0-0.1,0-0.1,0.1-0.2c0.1,0.1,0.1,0.1,0.2,0.2
			C252.2,13.1,252.2,13.5,252.3,13.8z M241.4,37.8c0,0.1,0,0.1,0.1,0.2c0.3-0.1,0.5-0.1,0.8-0.2c1.2-0.6,2.4-1.3,3.6-2
			c0.3-0.2,0.4-0.6,0.4-1c0-0.8-0.2-1.6-0.2-2.3c0-1,0-1.9,0-2.9c0-0.4,0-0.8-0.1-1.2c0-0.3-0.2-0.5-0.2-0.7
			c-0.2,0.2-0.4,0.3-0.6,0.5c-0.2,0.4-0.4,0.5-0.8,0.4c-0.8-0.2-1.5-0.1-2.2,0.3c-0.2,0.1-0.5,0.1-0.7,0.1c-0.6,0-1.2-0.2-1.8-0.1
			c-0.3,0-0.6,0.2-0.7,0.4c-0.1,0.1-0.1,0.5,0,0.6c0.4,0.5,0.7,1,0.5,1.7c0,0.2,0.1,0.5,0.2,0.7c0.4,0.8,0.8,1.7,0.7,2.6
			c0,0.2,0,0.4,0.1,0.5c0.4,0.9,0.2,1.7-0.4,2.5c-0.3,0.3-0.1,0.4,0.2,0.4c0.2,0,0.4,0,0.6-0.1C241,38,241.2,37.9,241.4,37.8z
			 M253.2,30.4c-0.1,0-0.1,0-0.2,0.1c0.1,0.2,0.3,0.5,0.4,0.7c0.2-0.1,0.3-0.3,0.5-0.4c0.1-0.1,0.2-0.2,0.3-0.3
			c1.1-0.8,2-1.7,2.7-2.9c0.2-0.3,0.4-0.5-0.2-0.6c0,0-0.1-0.3-0.1-0.3c0.2-0.3,0.4-0.3,0.7-0.1c0.3,0.2,0.5,0.2,0.8,0
			c0.3-0.3,0.5-0.6,0.8-0.9c0.3-0.4,0.2-0.6-0.3-0.8c-0.2-0.1-0.4-0.1-0.5-0.1c-1.5-0.2-3,0.2-4.4,0.6c-0.1,0-0.3,0.1-0.3,0.2
			c-0.1,0.5-0.3,1-0.3,1.4C253,28.2,253.1,29.3,253.2,30.4z"/>
		<g>
			<path class="st0" d="M290.7,17.8c0.5,0.9,0.4,1.7,0,2.7c-0.5,1.3-0.4,2.6-0.1,3.9c0,0.1,0.3,0.1,0.4,0.1c0.6-0.2,1-0.7,1.7-0.6
				c0.1,0,0.2-0.4,0.3-0.6c0.2-0.4,0.3-0.8,0.5-1.2c0.5-0.6,1.1-0.6,1.6-0.1c0.2,0.2,0.5,0.3,0.8,0.1c0.4-0.2,0.7-0.1,1,0.2
				c0.3,0.4,0.9,0.5,0.9,1c0,0.1,0.3,0.1,0.5,0.1c0.7,0.1,1.4,0,2.1,0.2c0.7,0.3,1.6,0.2,2.4,0.3c0.2,0,0.4,0.1,0.6,0.2
				c0.3,0.1,0.6,0.3,0.9,0.4c1.2,0.2,1.9,1.9,1.2,2.9c-0.6,0.9-1.5,1.1-2.5,0.8c-0.9-0.3-1.8-0.4-2.7-0.5c-0.2,0-0.6,0.3-0.8,0.5
				c-0.2,0.3-0.3,0.6-0.4,0.9c-0.3,1.3-1.2,2.2-1.9,3.2c-0.8,1.2-0.9,1.8,0.5,2.5c0.8,0.4,0.8,0.4,0.6,1.4c-0.1,0.5-0.1,1.1-0.6,1.5
				c-0.9,0.6-1.7,0.7-2.7,0.2c-0.9-0.5-0.9-0.5-1.7,0.1c-0.1,0-0.1,0.1-0.2,0.1c-1.3,0.4-1.2,1.5-1.2,2.5c0.1,2,0.2,4.1,0.3,6.1
				c0,0,0,0.1,0,0.1c0,1.4,0.4,1.7,1.7,1.5c0.9-0.1,1.8-0.2,2.7-0.2c0.1,0,0.2,0.1,0.3,0.2c0.1,0.1,0.3,0.2,0.4,0.1
				c0.9-0.1,1.8-0.3,2.7-0.4c0.2,0,0.5,0,0.7,0c0.4,0.1,0.7,0.2,1-0.1c0.1-0.1,0.4,0,0.6,0c0.5,0,1.1,0,1.6,0c0.4,0,1-0.7,1.3,0.2
				c0.6,0,1.1-0.1,1.7-0.1c0.3,0,0.6-0.2,0.9-0.3c0.1,0,0.2-0.1,0.2,0c0.3,0.3,0.7,0.5,1.2,0.5c0.2,0.6,0.8,0.5,1.2,0.8
				c0.9,0.5,1.3,1.8,1.2,2.5c-0.2,1.6-1.9,2.6-3.4,2.5c-1.4-0.2-2.8-0.1-4.3-0.1c-1,0-2-0.1-3-0.1c-0.7,0-1.4,0.1-2.1,0.3
				c-0.8,0.2-1.5,0.1-2.3,0.2c-1.1,0-2.2,0.1-3.3,0.1c-0.4,0-0.5,0.3-0.6,0.6c-0.1,0.9-0.2,1.8-0.1,2.7c0.2,1.7-0.1,3.3-0.4,4.9
				c-0.3,1.3-0.6,2.6-0.9,3.9c-0.2,0.8-0.7,1.5-1.3,2.1c-0.1,0.1-0.3,0.2-0.5,0.2c-1.1,0-2.2,0-3-1.1c-0.2-0.2-0.7-0.3-0.8-0.5
				c-0.1-0.2,0.1-0.6,0.2-0.9c0-0.2-0.1-0.4-0.2-0.6c0-0.1-0.1-0.4-0.1-0.4c0.7-0.6,0.4-1.5,0.4-2.2c0-1.6-0.1-3.3-0.2-4.9
				c0-0.6-0.1-1.2-0.1-1.8c-0.1-0.7-0.2-0.8-0.9-0.6c-1.2,0.3-2.5,0.6-3.7,0.8c-0.1,0-0.3,0-0.4,0.1c-0.7,0.4-1.5,0.5-2.2,0.7
				c-1.1,0.3-2.1,0.7-3.2,0.7c-1.7,0.1-3.4-0.1-5-0.4c-0.6-0.1-1.4-0.3-1.9-0.6c-1-0.7-2.4-1.2-2.6-2.7c-0.1-0.4,0-0.8,0.1-1.1
				c0.1-0.4,0.3-0.9,1-0.5c0.1,0.1,0.4,0,0.5,0c0.4,0.1,0.7,0.2,1,0.3c0.3,0.2,0.5,0.2,0.9,0.1c0.6-0.1,1.2-0.1,1.8-0.2
				c0.9-0.1,1.7-0.2,2.6-0.3c0.1,0,0.2-0.2,0.2-0.3c0-0.6,0.6-1,1-0.7c0.4,0.3,0.7,0.2,0.9-0.1c0.4-0.4,0.8-0.7,1.5-0.6
				c0.5,0.1,1-0.4,1.5-0.7c0.2-0.1,0.4-0.1,0.6-0.2c0.3-0.1,0.6-0.2,0.9-0.3c0.4-0.3,0.7-0.4,1,0c0.2,0.2,0.5,0.4,0.5-0.1
				c0,0,0.2-0.1,0.4-0.1c0.3,0,0.7,0.1,1,0.1c1.1,0,2-0.9,2-2c0-1.6-0.1-3.3-0.2-4.9c0-0.9-0.2-1.1-1.2-0.8
				c-1.2,0.3-2.4,0.5-3.6,0.9c-0.9,0.3-1.7,0.7-2.6,1c-0.2,0.1-0.6-0.1-0.8-0.2c-0.3-0.1-0.5-0.3-0.8-0.4c-0.9-0.4-1.4-1.1-1.9-1.9
				c-0.3-0.4,0.6-1.5,1.1-1.6c0.2,0,0.5-0.1,0.7-0.2c0.3-0.2,0.4-0.6,0.8-0.1c0,0,0.3-0.1,0.5-0.2c0.8-0.8,1.9-0.8,2.9-1
				c0.7-0.1,1.3-0.2,1.8-0.7c0.1-0.1,0.2-0.1,0.3-0.1c1.2,0.4,2.6-0.8,2.6-1.9c0-1-0.1-1.9-0.2-2.8c-0.1-0.6-0.5-0.8-1.1-0.7
				c-0.5,0.1-1,0.3-1.5,0.4c-0.4,0.1-0.6,0.5-0.6,0.9c0,0.4,0.1,0.8,0.2,1.2c0.1,1-0.8,1.9-1.8,1.9c-1-0.1-1.8-0.5-2.4-1.3
				c-0.4-0.6-0.8-0.6-1.4-0.3c-1.3,0.5-2.6,1-4,1.1c-0.6,0.1-1.1,0.2-1.6,0c-1.1-0.4-2.1-1.1-2.8-2.1c-0.4-0.5,0-1.1,0-1.6
				c0,0,0.5-0.2,0.7-0.2c2.3,0.2,4.3-0.5,6.1-1.8c1.1-0.8,1.1-0.8,0.6-2.1c-0.1-0.4-0.3-0.7-0.5-1.1c-0.3-0.7-0.1-1.7,0.5-2.1
				c0.1-0.1,0.4-0.1,0.6-0.1c0.2,0,0.4-0.1,0.4-0.2c0-0.1-0.1-0.3-0.2-0.4c-0.4-0.4-0.8-0.7-1.1-1c-0.4-0.4-0.2-1.7,0.3-2.1
				c0.1-0.1,0.2-0.1,0.3-0.1c0.5,0.1,1.1,0.2,1.6,0.3c0.3,0,0.7-0.1,1-0.2c0.4-0.1,0.9-0.2,1.3-0.5c1-0.5,2-1,3-1.7
				c0.6-0.4,0.6-0.7,0.2-1.3c-0.3-0.5-0.4-1.1-0.1-1.7c0.1-0.1,0.2-0.3,0.2-0.4c0-0.7,0.4-0.7,0.9-0.6c0.2,0.1,0.5,0.1,0.7,0.1
				c0.4,0,0.7,0.1,0.9,0.5c0.2,0.4,0.5,0.7,1,0.7c0.1,0,0.2,0.3,0.3,0.4c0.1,0.2,0.2,0.5,0.4,0.6c0.7,0.3,1.4,0.6,2.2,0.6
				C289.7,17.8,290.2,17.8,290.7,17.8L290.7,17.8z M284.7,25.9c-0.2-0.7-0.4-1.2-0.6-1.7c-0.2-0.5-0.3-0.5-0.8-0.3
				c-0.7,0.3-1.4,0.6-2.1,0.8c-0.8,0.2-1.7,0.3-2.5,0.5c-0.1,0-0.3,0.2-0.3,0.4c0,0.2,0.1,0.5,0.2,0.6c0.4,0.7,0.8,1.4,1.2,2.1
				c0,0.1,0.2,0.2,0.3,0.1c1.3-0.4,2.6-0.9,3.7-1.6C284.3,26.6,284.5,26.2,284.7,25.9z M291.2,30.8c0,0.8,0.1,1.4,0.1,1.9
				c0,0.2,0.2,0.4,0.4,0.6c0.1-0.2,0.3-0.4,0.4-0.6c0.3-0.7,0.5-1.3,0.7-2c0.2-0.6,0.5-1.1,0.7-1.7c0.1-0.3,0.1-0.8-0.3-0.6
				c-0.7,0.3-1.6,0.4-1.9,1.2C291.3,30.1,291.3,30.6,291.2,30.8z"/>
			<path class="st0" d="M290.7,17.8c-0.7-1.5-0.6-3-0.4-4.6c0,0,0-0.1,0-0.1c0-0.3-0.1-0.7-0.2-1c-0.4,0.1-0.8,0.1-1.1,0.3
				c-0.3,0.2-0.5,0.3-0.8,0.1c-0.1,0-0.2,0-0.3,0c-0.3,0-0.8,0.1-1,0c-0.8-0.6-1.5-1.3-2.2-2c-0.3-0.3,0.3-1.4,0.8-1.5
				c0.6-0.2,1.3-0.4,1.9-0.6c0.9-0.4,1.7-0.8,2.6-1.3c0.6-0.3,0.6-0.7,0.5-1.2c-0.2-0.8-0.3-1.6-0.4-2.4c0-0.4,0.1-0.8,0.2-1.1
				c0.3-0.8,0.8-1.1,1.6-0.7c0.3,0.1,0.6,0.3,0.9,0.4c0.5,0.1,0.8,0.4,1.2,0.8c0.3,0.3,0.6,0.7,0.8,1.1c0.1,0.2,0.2,0.5,0.3,0.7
				c0.2,0.6,0.7,0.9,1.3,0.6c0.2-0.1,0.5-0.1,0.7-0.1c0.2,0,0.5,0.1,0.7,0.1c0.9,0,1.5,0.6,2.2,1c0.1,0,0.1,0.1,0.1,0.2
				c0.5,1.1-0.2,3.1-1.2,3.6c-0.2,0.1-0.4,0.1-0.6,0c-0.6-0.2-1.1-0.3-1.7-0.6c-0.4-0.1-0.6-0.1-0.7,0.3c-0.1,0.9-0.2,1.9-0.6,2.8
				c-0.2,0.5-0.2,1.1-0.3,1.6c-0.2,0.8-0.4,1.6-0.6,2.4c-0.1,0.2-0.1,0.4-0.2,0.6c-0.6,1.4-1.7,1.7-3,0.9
				C291.1,18,290.9,17.9,290.7,17.8L290.7,17.8z"/>
			<path class="st0" d="M279,16.5c-0.1,0.5-0.2,1-0.3,1.4c-0.3,0.9-0.8,1.2-1.7,1.1c-0.3,0-0.5-0.1-0.8-0.1c-0.5-0.1-1-0.1-1.2,0.5
				c0,0.1-0.2,0.1-0.2,0.2c0-0.1-0.1-0.2-0.1-0.3c0.1-0.3,0.2-0.7,0.4-0.9c0.3-0.3,0.3-0.6,0.1-0.9c-0.2-0.3-0.3-0.6-0.5-0.9
				c-0.2-0.4-0.6-0.4-0.9-0.3c-1.3,0.6-2.5-0.1-3.7-0.3c-0.3-0.1-0.5-1.3-0.4-1.7c0.5-1,1.2-1.6,2.4-1.6c0.9,0,1.6-0.6,2.2-1.2
				c0.2-0.2,0.2-0.8,0.2-1.2c0-0.4-0.1-0.9-0.1-1.3c0-0.7,0.5-1.1,1.2-1c0.3,0,0.5,0.2,0.8,0.1c0.8-0.1,1.2,0.4,1.4,1
				c0.2,0.5,0.4,1.1,0.6,1.6c0,0.1,0.2,0.3,0.3,0.3c0.7-0.4,1.2,0.6,1.9,0.2c0,0,0.1,0.2,0.2,0.3c0.3,0.2,0.6,0.5,0.9,0.6
				c0.9,0.3,1.1,1.1,0.5,1.8c-0.4,0.5-0.9,0.8-1.6,0.7C279.2,14.5,278.9,14.9,279,16.5z"/>
		</g>
	</g>
	<g>
		<g>
			<path class="st0" d="M15,54.1c-1.3,0-2.5-0.2-3.6-0.5c-1.1-0.3-2-0.9-2.8-1.7c-0.8-0.8-1.5-2-2-3.5c-0.5-1.5-1-3.5-1.2-5.8
				C5.1,40.2,5,37.3,5,33.9c0-4,0.2-7.3,0.7-10c0.5-2.7,1.1-4.9,2-6.7c0.8-1.7,1.7-3,2.8-4c1-0.9,2.1-1.5,3.2-1.9
				c1.1-0.3,2.2-0.5,3.3-0.5c1.6,0,2.9,0.2,3.7,0.5c0.8,0.3,1.3,0.8,1.6,1.3c0.3,0.5,0.4,1.1,0.4,1.6c0,0.8-0.1,1.5-0.3,2.1
				c-0.2,0.7-0.4,1.2-0.6,1.7c-0.2-0.2-0.5-0.4-0.8-0.5c-0.3-0.2-0.7-0.3-1.1-0.4c-0.4-0.1-0.9-0.2-1.4-0.2c-0.7,0-1.4,0.1-2,0.4
				c-0.7,0.3-1.3,0.7-1.9,1.4c-0.6,0.7-1.1,1.7-1.5,2.9c-0.4,1.2-0.8,2.8-1,4.7s-0.4,4.2-0.4,7c0,2.7,0.1,5,0.3,6.8
				c0.2,1.8,0.5,3.2,0.9,4.1c0.4,1,0.9,1.7,1.6,2.1c0.6,0.4,1.4,0.6,2.2,0.6c1,0,1.9-0.1,2.7-0.3c0.9-0.2,1.6-0.5,2.1-0.8
				c0.2,0.5,0.4,1.1,0.6,1.8c0.2,0.7,0.2,1.3,0.2,2c0,0.9-0.3,1.7-0.9,2.4c-0.6,0.7-1.4,1.2-2.5,1.5C17.9,53.9,16.5,54.1,15,54.1z"
				/>
			<path class="st0" d="M25.6,53.5V12.1c0-0.9,0.2-1.6,0.5-2c0.3-0.4,1-0.6,1.9-0.7c0.9-0.1,2.2-0.1,3.9-0.1V25
				c0.8-0.7,1.7-1.3,2.8-1.6c1.1-0.4,2.2-0.5,3.2-0.5c1.6,0,2.8,0.3,3.6,0.9c0.8,0.6,1.3,1.5,1.6,2.6c0.3,1.2,0.4,2.6,0.4,4.3v21.7
				c0,0.4-0.1,0.6-0.4,0.8c-0.2,0.2-0.8,0.3-1.7,0.3c-0.9,0-2.4,0.1-4.4,0.1V32.6c0-1-0.1-2-0.4-2.7c-0.2-0.8-0.9-1.2-1.9-1.2
				c-0.4,0-0.9,0.1-1.4,0.2c-0.5,0.1-1,0.4-1.5,0.7v22.7c0,0.4-0.1,0.6-0.2,0.8c-0.2,0.2-0.7,0.3-1.6,0.3
				C29.1,53.4,27.7,53.5,25.6,53.5z"/>
			<path class="st0" d="M56.3,54.1c-2.4,0-4.2-0.4-5.5-1.1c-1.3-0.7-2.2-1.8-2.7-3.1c-0.5-1.4-0.8-3-0.8-5V24.6
				c0-0.4,0.1-0.6,0.2-0.8c0.2-0.2,0.7-0.3,1.6-0.3c0.9,0,2.5-0.1,4.6-0.1v21.8c0,0.8,0.1,1.4,0.2,1.9s0.4,0.9,0.7,1.1
				c0.4,0.3,0.9,0.4,1.6,0.4c0.4,0,0.9-0.1,1.4-0.2c0.5-0.1,0.9-0.4,1.3-0.6V24.6c0-0.4,0.1-0.6,0.2-0.8c0.2-0.2,0.7-0.3,1.6-0.3
				c0.9,0,2.4-0.1,4.5-0.1v28.3c-1,0.6-2.3,1.1-3.9,1.6C59.7,53.8,58.1,54.1,56.3,54.1z"/>
			<path class="st0" d="M69.4,53.5V24.8c0.7-0.3,1.6-0.6,2.6-0.9c1.1-0.3,2.2-0.5,3.4-0.8c1.2-0.2,2.3-0.3,3.3-0.3
				c2,0,3.7,0.2,5,0.7c1.3,0.5,2.2,1.3,2.8,2.4c0.6,1.1,0.9,2.7,0.9,4.7v21.7c0,0.4-0.1,0.6-0.3,0.8c-0.2,0.2-0.8,0.3-1.6,0.3
				c-0.9,0-2.4,0.1-4.6,0.1V32.6c0-1.6-0.1-2.8-0.4-3.4c-0.3-0.6-0.9-1-1.9-1c-0.4,0-0.9,0.1-1.4,0.2c-0.5,0.1-1,0.3-1.3,0.6v23.3
				c0,0.4-0.1,0.6-0.3,0.8c-0.2,0.2-0.7,0.3-1.6,0.3C72.9,53.4,71.4,53.5,69.4,53.5z"/>
			<path class="st0" d="M99.6,65.2c-2.7,0-4.7-0.3-6.1-1c-1.4-0.7-2.3-1.5-2.8-2.6c-0.5-1-0.7-2.1-0.7-3.1c0-1.5,0.4-2.8,1.2-4
				c0.8-1.2,1.8-2.2,3.1-3.1c1.3-0.9,2.7-1.5,4.2-2l2,1.8c-0.7,0.3-1.3,0.8-2,1.3c-0.6,0.6-1.2,1.2-1.6,2c-0.4,0.7-0.6,1.5-0.6,2.3
				c0,0.5,0.1,1,0.3,1.4c0.2,0.4,0.6,0.7,1.2,0.9c0.6,0.2,1.3,0.3,2.3,0.3c1.6,0,2.8-0.5,3.4-1.3c0.6-0.9,1-1.8,1-2.5
				c0-0.7-0.1-1.3-0.4-1.7s-0.9-0.8-1.9-1c-1-0.3-2.5-0.5-4.5-0.6c-1.4-0.1-2.7-0.3-3.8-0.6s-1.9-0.7-2.5-1.3
				c-0.6-0.6-0.8-1.2-0.8-2c0-0.7,0.2-1.4,0.6-2c0.4-0.7,0.9-1.4,1.7-2.2c0.7-0.8,1.7-1.5,2.8-2.3l3.7,1.2c0,0-0.2,0.2-0.6,0.6
				c-0.3,0.3-0.7,0.7-1,1.2c-0.3,0.5-0.5,0.9-0.5,1.3c0,0.5,0.5,0.8,1.6,0.9c1.1,0.1,2.4,0.3,4,0.5c1.7,0.3,3.1,0.7,4.3,1.2
				c1.2,0.5,2.1,1.3,2.7,2.3c0.6,1,1,2.3,1,3.9c0,1.9-0.4,3.6-1.2,5.2c-0.8,1.6-2,2.9-3.7,3.8C104.5,64.8,102.3,65.2,99.6,65.2z
				 M100.3,44.2c-2.4,0-4.2-0.5-5.6-1.3c-1.4-0.9-2.3-2.1-2.9-3.7C91.3,37.7,91,35.9,91,34c0-2.8,0.4-5,1.2-6.6
				c0.8-1.6,2-2.7,3.5-3.4c1.5-0.7,3.3-1.1,5.3-1.1c0.5,0,1.1,0.1,1.7,0.2s1.2,0.3,1.8,0.5l1.2,2.8c1.3,0.6,2.3,1.5,3.1,2.8
				c0.8,1.3,1.2,3,1.2,5.1c0,2.2-0.3,4-1,5.4c-0.7,1.5-1.7,2.6-3.1,3.4S102.7,44.2,100.3,44.2z M100.6,39.5c0.7,0,1.2-0.2,1.7-0.6
				c0.5-0.4,0.8-1.1,1-2.1c0.2-1,0.3-2.4,0.3-4.2c0-2-0.2-3.3-0.7-4.1c-0.4-0.8-1.2-1.2-2.2-1.2c-0.6,0-1.2,0.2-1.6,0.6
				c-0.5,0.4-0.9,1.1-1.1,2c-0.3,0.9-0.4,2.2-0.4,3.8c0,1.4,0.1,2.5,0.3,3.4c0.2,0.9,0.5,1.5,0.9,1.9
				C99.2,39.4,99.8,39.5,100.6,39.5z M109.9,28.8c-0.6,0-1.4-0.1-2.3-0.4c-0.9-0.3-1.8-0.6-2.8-1c-0.9-0.4-2-0.8-3.2-1.4l0.2-2.6
				h9.4c0.2,0.3,0.4,0.7,0.5,1.2c0.1,0.5,0.2,1.1,0.2,1.8c0,0.8-0.2,1.4-0.5,1.8C111,28.6,110.5,28.8,109.9,28.8z"/>
			<path class="st0" d="M114.4,53.5V12.1c0-0.9,0.2-1.6,0.5-2c0.3-0.4,1-0.6,1.9-0.7c0.9-0.1,2.2-0.1,3.9-0.1V25
				c0.8-0.7,1.7-1.3,2.8-1.6c1.1-0.4,2.2-0.5,3.2-0.5c1.6,0,2.8,0.3,3.6,0.9c0.8,0.6,1.3,1.5,1.6,2.6c0.3,1.2,0.4,2.6,0.4,4.3v21.7
				c0,0.4-0.1,0.6-0.4,0.8c-0.2,0.2-0.8,0.3-1.7,0.3c-0.9,0-2.4,0.1-4.4,0.1V32.6c0-1-0.1-2-0.4-2.7c-0.2-0.8-0.9-1.2-1.9-1.2
				c-0.4,0-0.9,0.1-1.4,0.2c-0.5,0.1-1,0.4-1.5,0.7v22.7c0,0.4-0.1,0.6-0.2,0.8c-0.2,0.2-0.7,0.3-1.6,0.3
				C118,53.4,116.5,53.5,114.4,53.5z"/>
			<path class="st0" d="M142.6,53.8c-0.8,0-1.3-0.3-1.7-0.9c-0.4-0.6-0.7-1.3-0.9-2.1c-0.3-1.2-0.7-2.7-1-4.4
				c-0.4-1.7-0.7-3.6-1.1-5.5c-0.4-2-0.8-3.9-1.2-5.8c-0.4-1.9-0.8-3.7-1.1-5.2c-0.3-1.6-0.7-3.3-1-5.2c0-0.4,0.1-0.7,0.3-0.8
				c0.2-0.2,0.9-0.3,1.9-0.3c1,0,2.6-0.1,4.8-0.1l1.3,8.7c0.2,1.5,0.4,3.1,0.6,4.8c0.2,1.7,0.3,3.2,0.5,4.7c0.1,1.5,0.3,3.1,0.4,5
				h0.4c0.1-0.6,0.1-1.5,0.2-2.5c0.1-1,0.2-2.2,0.3-3.4c0.1-1.2,0.3-2.3,0.4-3.3l1.7-11.9c0.1-0.5,0.2-0.9,0.5-1
				c0.2-0.2,0.8-0.2,1.6-0.2h1.7c0.5,0,0.7,0.1,0.6,0.4c-0.1,0.3-0.3,0.6-0.5,0.9c-0.2,0.4-0.4,0.6-0.4,0.8l-0.1,3.2
				c-0.1,1.6-0.2,3-0.2,4.3s-0.2,2.8-0.3,4.3c-0.1,1.5-0.3,3.1-0.4,4.6c-0.1,1.5-0.3,2.9-0.6,4.1l-1.1,6.7c-1.2,0.1-2.2,0.1-3.1,0.2
				C144.1,53.7,143.4,53.8,142.6,53.8z M155.3,53.8c-0.6,0-1.2-0.2-1.9-0.7c-0.7-0.4-1.1-1.2-1.3-2.3l-0.7-4
				c-0.2-1.2-0.4-2.6-0.5-4.1c-0.2-1.5-0.3-3-0.4-4.6c-0.1-1.5-0.2-2.9-0.2-4.2c-0.1-1.3-0.1-2.7-0.2-4.3l-0.8-3.3
				c0-0.3,0-0.8,0.3-1.3c0.2-0.6,0.5-0.8,0.9-0.8h3.1l2.1,13.2c0.2,0.8,0.3,1.7,0.4,2.7c0.1,1,0.2,2.1,0.3,3.1
				c0.1,1,0.2,2.2,0.3,3.5h0.4c0.1-1.4,0.2-2.9,0.3-4.6c0.1-1.7,0.3-3.4,0.5-5.1s0.3-3.3,0.5-4.7l1.1-7.4c0.1-0.4,0.2-0.7,0.4-0.9
				c0.2-0.2,0.7-0.3,1.6-0.3c0.8,0,2.2-0.1,4.1-0.1c-0.4,2.2-0.8,4.1-1.1,5.9c-0.4,1.8-0.7,3.7-1.1,5.9c-0.4,2.1-0.8,4.3-1.2,6.4
				c-0.4,2.1-0.8,4.1-1.2,5.9c-0.4,1.8-0.7,3.2-0.9,4.3c-0.2,1.1-0.4,1.6-0.5,1.6C158.1,53.7,156.7,53.8,155.3,53.8z"/>
			<path class="st0" d="M175.8,54.1c-1.1,0-2.2-0.1-3.2-0.3c-1-0.2-1.9-0.6-2.7-1.2c-0.8-0.6-1.4-1.5-1.9-2.8
				c-0.5-1.2-0.7-2.9-0.7-5c0-2,0.2-3.7,0.6-5c0.4-1.3,0.9-2.3,1.6-3c0.7-0.7,1.4-1.2,2.3-1.5c0.9-0.3,1.7-0.4,2.6-0.4
				c0.5,0,1.2,0.1,2,0.2c0.8,0.1,1.5,0.4,2,0.7c0-1,0-1.8,0-2.5c0-0.7,0-1.3,0-1.9c0-0.6-0.1-1.1-0.3-1.4s-0.5-0.6-0.9-0.8
				c-0.4-0.2-0.9-0.3-1.6-0.3c-1.2,0-2.5,0.1-3.9,0.4c-1.4,0.3-2.5,0.6-3.5,0.9c-0.4-0.6-0.6-1.3-0.7-2c-0.1-0.7-0.1-1.2-0.1-1.7
				c0-0.4,0.1-0.7,0.2-1.1c0.1-0.4,0.3-0.7,0.6-0.8c0.5-0.3,1.5-0.7,3.1-1.1c1.6-0.4,3.5-0.6,5.9-0.6c2.7,0,4.7,0.5,5.8,1.6
				c1.1,1.1,1.7,3,1.7,5.7v2.9c0,2.3,0,4.6,0,7s0,4.6-0.1,6.7c0,2.1-0.1,3.9-0.2,5.4c-1,0.6-2.2,1-3.6,1.4
				C179.2,53.9,177.6,54.1,175.8,54.1z M176.2,48.9c0.4,0,0.7-0.1,1.1-0.2c0.4-0.1,0.7-0.3,0.8-0.5c0-0.5,0.1-1.2,0.1-2.2
				s0-2,0.1-3.1c0-1.1,0-2.1,0-3c-0.3-0.2-0.6-0.3-0.9-0.4c-0.3-0.1-0.7-0.1-0.9-0.1c-0.4,0-0.8,0.1-1.1,0.2
				c-0.3,0.1-0.6,0.4-0.8,0.8c-0.2,0.4-0.4,0.9-0.6,1.6c-0.1,0.7-0.2,1.5-0.2,2.6c0,0.8,0,1.5,0.2,2c0.1,0.5,0.2,1,0.4,1.3
				c0.2,0.4,0.4,0.6,0.8,0.8C175.5,48.8,175.8,48.9,176.2,48.9z"/>
			<path class="st0" d="M196.7,33.4c0-1.9,0-3.3,0.1-4.1c0.1-0.8,0.4-1.3,1-1.3h19.9c0,1.8-0.1,3.2-0.2,4.1c-0.1,0.9-0.4,1.3-1,1.3
				H196.7z M196.7,45.1c0-1.9,0-3.2,0.1-4.1c0.1-0.9,0.4-1.3,1-1.3h19.9c0,1.9-0.1,3.2-0.2,4.1s-0.4,1.3-1,1.3H196.7z"/>
		</g>
	</g>
	<g>
		<g>
			<path class="st0" d="M325,33.4c0-1.9,0-3.3,0.1-4.1c0.1-0.8,0.4-1.3,1-1.3H346c0,1.8-0.1,3.2-0.2,4.1c-0.1,0.9-0.4,1.3-1,1.3H325
				z M325,45.1c0-1.9,0-3.2,0.1-4.1c0.1-0.9,0.4-1.3,1-1.3H346c0,1.9-0.1,3.2-0.2,4.1s-0.4,1.3-1,1.3H325z"/>
			<path class="st0" d="M367.6,54.1c-1.3,0-2.5-0.2-3.6-0.5c-1.1-0.3-2-0.9-2.8-1.7c-0.8-0.8-1.5-2-2-3.5c-0.5-1.5-1-3.5-1.2-5.8
				c-0.3-2.4-0.4-5.2-0.4-8.6c0-4,0.2-7.3,0.7-10c0.5-2.7,1.1-4.9,2-6.7c0.8-1.7,1.7-3,2.8-4c1-0.9,2.1-1.5,3.2-1.9
				c1.1-0.3,2.2-0.5,3.3-0.5c1.6,0,2.9,0.2,3.7,0.5c0.8,0.3,1.3,0.8,1.6,1.3c0.3,0.5,0.4,1.1,0.4,1.6c0,0.8-0.1,1.5-0.3,2.1
				c-0.2,0.7-0.4,1.2-0.6,1.7c-0.2-0.2-0.5-0.4-0.8-0.5c-0.3-0.2-0.7-0.3-1.1-0.4c-0.4-0.1-0.9-0.2-1.4-0.2c-0.7,0-1.4,0.1-2,0.4
				c-0.7,0.3-1.3,0.7-1.9,1.4c-0.6,0.7-1.1,1.7-1.5,2.9c-0.4,1.2-0.8,2.8-1,4.7s-0.4,4.2-0.4,7c0,2.7,0.1,5,0.3,6.8
				c0.2,1.8,0.5,3.2,0.9,4.1c0.4,1,0.9,1.7,1.6,2.1c0.6,0.4,1.4,0.6,2.2,0.6c1,0,1.9-0.1,2.7-0.3c0.9-0.2,1.6-0.5,2.1-0.8
				c0.2,0.5,0.4,1.1,0.6,1.8c0.2,0.7,0.2,1.3,0.2,2c0,0.9-0.3,1.7-0.9,2.4c-0.6,0.7-1.4,1.2-2.5,1.5
				C370.5,53.9,369.1,54.1,367.6,54.1z"/>
			<path class="st0" d="M378.2,53.5V12.1c0-0.9,0.2-1.6,0.5-2c0.3-0.4,1-0.6,1.9-0.7c0.9-0.1,2.2-0.1,3.9-0.1V25
				c0.8-0.7,1.7-1.3,2.8-1.6c1.1-0.4,2.2-0.5,3.2-0.5c1.6,0,2.8,0.3,3.6,0.9c0.8,0.6,1.3,1.5,1.6,2.6c0.3,1.2,0.4,2.6,0.4,4.3v21.7
				c0,0.4-0.1,0.6-0.4,0.8c-0.2,0.2-0.8,0.3-1.7,0.3c-0.9,0-2.4,0.1-4.4,0.1V32.6c0-1-0.1-2-0.4-2.7c-0.2-0.8-0.9-1.2-1.9-1.2
				c-0.4,0-0.9,0.1-1.4,0.2c-0.5,0.1-1,0.4-1.5,0.7v22.7c0,0.4-0.1,0.6-0.2,0.8c-0.2,0.2-0.7,0.3-1.6,0.3
				C381.7,53.4,380.3,53.5,378.2,53.5z"/>
			<path class="st0" d="M408.9,54.1c-2.4,0-4.2-0.4-5.5-1.1c-1.3-0.7-2.2-1.8-2.7-3.1c-0.5-1.4-0.8-3-0.8-5V24.6
				c0-0.4,0.1-0.6,0.2-0.8c0.2-0.2,0.7-0.3,1.6-0.3c0.9,0,2.5-0.1,4.6-0.1v21.8c0,0.8,0.1,1.4,0.2,1.9s0.4,0.9,0.7,1.1
				c0.4,0.3,0.9,0.4,1.6,0.4c0.4,0,0.9-0.1,1.4-0.2c0.5-0.1,0.9-0.4,1.3-0.6V24.6c0-0.4,0.1-0.6,0.2-0.8c0.2-0.2,0.7-0.3,1.6-0.3
				c0.9,0,2.4-0.1,4.5-0.1v28.3c-1,0.6-2.3,1.1-3.9,1.6C412.3,53.8,410.7,54.1,408.9,54.1z M401,19.1c-0.2-0.5-0.3-1-0.4-1.4
				c-0.1-0.4-0.1-0.9-0.1-1.4c0-0.9,0.2-1.6,0.7-2.2c0.5-0.6,1.1-0.9,1.9-0.9h13.6c0.2,0.4,0.4,0.9,0.5,1.4c0.1,0.5,0.1,0.9,0.1,1.3
				c0,1-0.2,1.7-0.6,2.3c-0.4,0.6-1,0.9-1.7,0.9H401z"/>
			<path class="st0" d="M422,53.5V12.1c0-0.9,0.2-1.6,0.5-2c0.3-0.4,1-0.6,1.9-0.7c0.9-0.1,2.2-0.1,4-0.1v15.4c0.8-0.5,1.8-1,3-1.3
				c1.2-0.4,2.4-0.6,3.6-0.6c1.4,0,2.4,0.3,3.1,0.8c0.7,0.5,1.2,1.2,1.5,1.9c0.3,0.8,0.4,1.6,0.4,2.4c0,1.2-0.1,2.2-0.4,3.2
				c-0.3,1-0.6,1.9-1,2.6c-0.4,0.8-0.8,1.4-1.3,2c-0.4,0.6-0.8,1-1.2,1.3c1,0.7,1.8,1.6,2.5,2.7c0.7,1.1,1.2,2.4,1.6,3.8
				c0.4,1.4,0.6,3,0.6,4.6c0,0.7,0,1.4,0,2.1c0,0.7-0.1,1.5-0.2,2.2c0,0.3-0.2,0.6-0.4,0.7s-0.8,0.2-1.8,0.3c-1,0-2.6,0-5,0
				c0.1-1.1,0.1-2.2,0.2-3.3c0-1.1,0.1-2.1,0.1-3.1c-0.1-1.2-0.2-2.2-0.4-3.1s-0.4-1.7-0.7-2.3c-0.3-0.6-0.6-1.1-1-1.4
				c-0.4-0.3-0.9-0.3-1.5-0.2c-0.3,0-0.6,0.1-0.9,0.3c-0.3,0.2-0.6,0.4-1,0.6v11.3c0,0.4-0.1,0.6-0.3,0.8c-0.2,0.2-0.7,0.3-1.6,0.3
				C425.6,53.4,424.1,53.5,422,53.5z M428.3,36.8c1-0.5,1.8-1.1,2.5-1.7c0.7-0.6,1.2-1.3,1.6-2.1c0.4-0.8,0.5-1.7,0.5-2.7
				c0-1.2-0.5-1.8-1.4-1.8c-0.6,0-1.2,0.2-1.7,0.5c-0.5,0.3-1,0.8-1.4,1.4V36.8z"/>
			<path class="st0" d="M451.6,54.1c-1.1,0-2.2-0.1-3.2-0.3c-1-0.2-1.9-0.6-2.7-1.2c-0.8-0.6-1.4-1.5-1.9-2.8
				c-0.5-1.2-0.7-2.9-0.7-5c0-2,0.2-3.7,0.6-5c0.4-1.3,0.9-2.3,1.6-3c0.7-0.7,1.4-1.2,2.3-1.5c0.9-0.3,1.7-0.4,2.6-0.4
				c0.5,0,1.2,0.1,2,0.2c0.8,0.1,1.5,0.4,2,0.7c0-1,0-1.8,0-2.5c0-0.7,0-1.3,0-1.9c0-0.6-0.1-1.1-0.3-1.4s-0.5-0.6-0.9-0.8
				c-0.4-0.2-0.9-0.3-1.6-0.3c-1.2,0-2.5,0.1-3.9,0.4c-1.4,0.3-2.5,0.6-3.5,0.9c-0.4-0.6-0.6-1.3-0.7-2c-0.1-0.7-0.1-1.2-0.1-1.7
				c0-0.4,0.1-0.7,0.2-1.1c0.1-0.4,0.3-0.7,0.6-0.8c0.5-0.3,1.5-0.7,3.1-1.1c1.6-0.4,3.5-0.6,5.9-0.6c2.7,0,4.7,0.5,5.8,1.6
				c1.1,1.1,1.7,3,1.7,5.7v2.9c0,2.3,0,4.6,0,7s0,4.6-0.1,6.7c0,2.1-0.1,3.9-0.2,5.4c-1,0.6-2.2,1-3.6,1.4
				C455.1,53.9,453.4,54.1,451.6,54.1z M452,48.9c0.4,0,0.7-0.1,1.1-0.2c0.4-0.1,0.7-0.3,0.8-0.5c0-0.5,0.1-1.2,0.1-2.2s0-2,0.1-3.1
				c0-1.1,0-2.1,0-3c-0.3-0.2-0.6-0.3-0.9-0.4c-0.3-0.1-0.7-0.1-0.9-0.1c-0.4,0-0.8,0.1-1.1,0.2c-0.3,0.1-0.6,0.4-0.8,0.8
				c-0.2,0.4-0.4,0.9-0.6,1.6c-0.1,0.7-0.2,1.5-0.2,2.6c0,0.8,0,1.5,0.2,2c0.1,0.5,0.2,1,0.4,1.3c0.2,0.4,0.4,0.6,0.8,0.8
				C451.3,48.8,451.6,48.9,452,48.9z"/>
		</g>
	</g>
</g>
</svg>
