<?xml version="1.0" encoding="utf-8"?>
<!-- Generator: Adobe Illustrator 25.2.3, SVG Export Plug-In . SVG Version: 6.00 Build 0)  -->
<svg version="1.1" id="Layer_1" xmlns="http://www.w3.org/2000/svg" xmlns:xlink="http://www.w3.org/1999/xlink" x="0px" y="0px"
	 viewBox="0 0 650 650" style="enable-background:new 0 0 650 650;" xml:space="preserve">
<defs>
<style>
	path, polygon {
		fill: rgba(20, 20, 24, 0.95);
	}

	@media (prefers-color-scheme:dark) {
		path, polygon {
			fill: rgba(224, 215, 203, 0.95);
		}
	}
</style>
</defs>
<g>
	<path d="M595,50h-5h-5h-5h-5h-5h-5h-5h-5h-5h-5h-5h-5h-5h-5h-5h-5h-5h-5h-5h-5h-5h-5h-5h-5h-5h-5h-5h-5h-5v5v5v5v5v5v5v5v5v5v5h-5
		h-5h-5h-5h-5h-5h-5h-5h-5h-5h-5h-5h-5h-5h-5h-5h-5h-5h-5h-5h-5h-5h-5h-5h-5h-5h-5h-5h-5h-5h-5h-5h-5h-5h-5h-5h-5h-5h-5h-5h-5h-5h-5
		h-5h-5h-5h-5h-5h-5h-5h-5h-5h-5h-5h-5h-5h-5h-5h-5h-5h-5h-5h-5h-5h-5h-5h-5h-5h-5h-5v5v5v5v5v5v5v5v5v5v5h5h5h5h5h5h5h5h5h5h5h5h5
		h5h5h5h5h5h5h5h5h5h5h5h5h5h5h5h5h5h5h5h5h5h5h5h5h5h5h5h5h5h5h5h5h5h5h5h5h5h5h5h5h5h5h5h5h5h5h5h5h5h5h5h5h5h5h5h5h5h5v5v5v5v5v5
		v5v5v5v5v5h5h5h5h5h5h5h5h5h5h5h5h5h5h5h5h5h5h5h5h5h5h5h5h5h5h5h5h5h5h5v-5v-5v-5v-5v-5v-5v-5v-5v-5v-5v-5v-5v-5v-5v-5v-5v-5v-5
		v-5v-5v-5v-5v-5v-5v-5v-5v-5v-5v-5v-5H595z M550,105v5v5v5v5v5v5v5v5v5h-5h-5h-5h-5h-5h-5h-5h-5h-5h-5v-5v-5v-5v-5v-5v-5v-5v-5v-5
		v-5h5h5h5h5h5h5h5h5h5h5V105z"/>
	<polygon points="90,150 85,150 80,150 75,150 70,150 65,150 60,150 55,150 50,150 50,155 50,160 50,165 50,170 50,175 50,180 
		50,185 50,190 50,195 50,200 50,205 50,210 50,215 50,220 50,225 50,230 50,235 50,240 50,245 50,250 50,255 50,260 50,265 50,270 
		50,275 50,280 50,285 50,290 50,295 50,300 50,305 50,310 50,315 50,320 50,325 50,330 50,335 50,340 50,345 50,350 50,355 50,360 
		50,365 50,370 50,375 50,380 50,385 50,390 50,395 50,400 50,405 50,410 50,415 50,420 50,425 50,430 50,435 50,440 50,445 50,450 
		50,455 50,460 50,465 50,470 50,475 50,480 50,485 50,490 50,495 50,500 50,505 50,510 50,515 50,520 50,525 50,530 50,535 50,540 
		50,545 50,550 55,550 60,550 65,550 70,550 75,550 80,550 85,550 90,550 95,550 100,550 100,545 100,540 100,535 100,530 100,525 
		100,520 100,515 100,510 100,505 100,500 100,495 100,490 100,485 100,480 100,475 100,470 100,465 100,460 100,455 100,450 
		100,445 100,440 100,435 100,430 100,425 100,420 100,415 100,410 100,405 100,400 100,395 100,390 100,385 100,380 100,375 
		100,370 100,365 100,360 100,355 100,350 100,345 100,340 100,335 100,330 100,325 100,320 100,315 100,310 100,305 100,300 
		100,295 100,290 100,285 100,280 100,275 100,270 100,265 100,260 100,255 100,250 100,245 100,240 100,235 100,230 100,225 
		100,220 100,215 100,210 100,205 100,200 100,195 100,190 100,185 100,180 100,175 100,170 100,165 100,160 100,155 100,150 
		95,150 	"/>
	<polygon points="550,290 550,285 550,280 550,275 550,270 550,265 550,260 550,255 550,250 545,250 540,250 535,250 530,250 
		525,250 520,250 515,250 510,250 505,250 500,250 495,250 490,250 485,250 480,250 475,250 470,250 465,250 460,250 455,250 
		450,250 445,250 440,250 435,250 430,250 425,250 420,250 415,250 410,250 405,250 400,250 395,250 390,250 385,250 380,250 
		375,250 370,250 365,250 360,250 355,250 350,250 345,250 340,250 335,250 330,250 325,250 320,250 315,250 310,250 305,250 
		300,250 295,250 290,250 285,250 280,250 275,250 270,250 265,250 260,250 255,250 250,250 245,250 240,250 235,250 230,250 
		225,250 220,250 215,250 210,250 205,250 200,250 200,255 200,260 200,265 200,270 200,275 200,280 200,285 200,290 200,295 
		200,300 205,300 210,300 215,300 220,300 225,300 230,300 235,300 240,300 245,300 250,300 255,300 260,300 265,300 270,300 
		275,300 280,300 285,300 290,300 295,300 300,300 305,300 310,300 315,300 320,300 325,300 330,300 335,300 340,300 345,300 
		350,300 355,300 360,300 365,300 370,300 375,300 380,300 385,300 390,300 395,300 400,300 405,300 410,300 415,300 420,300 
		425,300 430,300 435,300 440,300 445,300 450,300 455,300 460,300 465,300 470,300 475,300 480,300 485,300 490,300 495,300 
		500,300 505,300 510,300 515,300 520,300 525,300 530,300 535,300 540,300 545,300 550,300 550,295 	"/>
	<polygon points="190,300 185,300 180,300 175,300 170,300 165,300 160,300 155,300 150,300 150,305 150,310 150,315 150,320 
		150,325 150,330 150,335 150,340 150,345 150,350 150,355 150,360 150,365 150,370 150,375 150,380 150,385 150,390 150,395 
		150,400 155,400 160,400 165,400 170,400 175,400 180,400 185,400 190,400 195,400 200,400 200,395 200,390 200,385 200,380 
		200,375 200,370 200,365 200,360 200,355 200,350 200,345 200,340 200,335 200,330 200,325 200,320 200,315 200,310 200,305 
		200,300 195,300 	"/>
	<path d="M200,410v5v5v5v5v5v5v5v5h5h5h5h5h5h5h5h5h5h5h5h5h5h5h5h5h5h5h5h5h5h5h5h5h5h5h5h5h5h5v5v5v5v5v5v5v5v5v5v5h5h5h5h5h5h5h5
		h5h5h5h5h5h5h5h5h5h5h5h5h5h5h5h5h5h5h5h5h5h5h5v-5v-5v-5v-5v-5v-5v-5v-5v-5v-5v-5v-5v-5v-5v-5v-5v-5v-5v-5v-5v-5v-5v-5v-5v-5v-5
		v-5v-5v-5v-5h-5h-5h-5h-5h-5h-5h-5h-5h-5h-5h-5h-5h-5h-5h-5h-5h-5h-5h-5h-5h-5h-5h-5h-5h-5h-5h-5h-5h-5h-5v5v5v5v5v5v5v5v5v5v5h-5
		h-5h-5h-5h-5h-5h-5h-5h-5h-5h-5h-5h-5h-5h-5h-5h-5h-5h-5h-5h-5h-5h-5h-5h-5h-5h-5h-5h-5h-5v5V410z M400,440v-5v-5v-5v-5v-5v-5v-5
		v-5h5h5h5h5h5h5h5h5h5h5v5v5v5v5v5v5v5v5v5v5h-5h-5h-5h-5h-5h-5h-5h-5h-5h-5v-5V440z"/>
	<polygon points="560,550 565,550 570,550 575,550 580,550 585,550 590,550 595,550 600,550 600,545 600,540 600,535 600,530 
		600,525 600,520 600,515 600,510 600,505 600,500 600,495 600,490 600,485 600,480 600,475 600,470 600,465 600,460 600,455 
		600,450 600,445 600,440 600,435 600,430 600,425 600,420 600,415 600,410 600,405 600,400 600,395 600,390 600,385 600,380 
		600,375 600,370 600,365 600,360 600,355 600,350 600,345 600,340 600,335 600,330 600,325 600,320 600,315 600,310 600,305 
		600,300 595,300 590,300 585,300 580,300 575,300 570,300 565,300 560,300 555,300 550,300 550,305 550,310 550,315 550,320 
		550,325 550,330 550,335 550,340 550,345 550,350 550,355 550,360 550,365 550,370 550,375 550,380 550,385 550,390 550,395 
		550,400 550,405 550,410 550,415 550,420 550,425 550,430 550,435 550,440 550,445 550,450 550,455 550,460 550,465 550,470 
		550,475 550,480 550,485 550,490 550,495 550,500 550,505 550,510 550,515 550,520 550,525 550,530 550,535 550,540 550,545 
		550,550 555,550 	"/>
	<polygon points="100,560 100,565 100,570 100,575 100,580 100,585 100,590 100,595 100,600 105,600 110,600 115,600 120,600 
		125,600 130,600 135,600 140,600 145,600 150,600 155,600 160,600 165,600 170,600 175,600 180,600 185,600 190,600 195,600 
		200,600 205,600 210,600 215,600 220,600 225,600 230,600 235,600 240,600 245,600 250,600 255,600 260,600 265,600 270,600 
		275,600 280,600 285,600 290,600 295,600 300,600 305,600 310,600 315,600 320,600 325,600 330,600 335,600 340,600 345,600 
		350,600 355,600 360,600 365,600 370,600 375,600 380,600 385,600 390,600 395,600 400,600 405,600 410,600 415,600 420,600 
		425,600 430,600 435,600 440,600 445,600 450,600 455,600 460,600 465,600 470,600 475,600 480,600 485,600 490,600 495,600 
		500,600 505,600 510,600 515,600 520,600 525,600 530,600 535,600 540,600 545,600 550,600 550,595 550,590 550,585 550,580 
		550,575 550,570 550,565 550,560 550,555 550,550 545,550 540,550 535,550 530,550 525,550 520,550 515,550 510,550 505,550 
		500,550 495,550 490,550 485,550 480,550 475,550 470,550 465,550 460,550 455,550 450,550 445,550 440,550 435,550 430,550 
		425,550 420,550 415,550 410,550 405,550 400,550 395,550 390,550 385,550 380,550 375,550 370,550 365,550 360,550 355,550 
		350,550 345,550 340,550 335,550 330,550 325,550 320,550 315,550 310,550 305,550 300,550 295,550 290,550 285,550 280,550 
		275,550 270,550 265,550 260,550 255,550 250,550 245,550 240,550 235,550 230,550 225,550 220,550 215,550 210,550 205,550 
		200,550 195,550 190,550 185,550 180,550 175,550 170,550 165,550 160,550 155,550 150,550 145,550 140,550 135,550 130,550 
		125,550 120,550 115,550 110,550 105,550 100,550 100,555 	"/>
</g>
</svg>
