<?xml version="1.0" encoding="utf-8"?>
<!-- Generator: Adobe Illustrator 25.2.3, SVG Export Plug-In . SVG Version: 6.00 Build 0)  -->
<svg version="1.1" id="Layer_1" xmlns="http://www.w3.org/2000/svg" xmlns:xlink="http://www.w3.org/1999/xlink" x="0px" y="0px"
	 viewBox="0 0 650 650" style="enable-background:new 0 0 650 650;" xml:space="preserve">
<defs>
<style>
	path, polygon {
		fill: rgba(20, 20, 24, 0.95);
	}

	@media (prefers-color-scheme:dark) {
		path, polygon {
			fill: rgba(224, 215, 203, 0.95);
		}
	}
</style>
</defs>
<g>
	<polygon points="110,100 115,100 120,100 125,100 130,100 135,100 140,100 145,100 150,100 155,100 160,100 165,100 170,100 
		175,100 180,100 185,100 190,100 195,100 200,100 205,100 210,100 215,100 220,100 225,100 230,100 235,100 240,100 245,100 
		250,100 255,100 260,100 265,100 270,100 275,100 280,100 285,100 290,100 295,100 300,100 305,100 310,100 315,100 320,100 
		325,100 330,100 335,100 340,100 345,100 350,100 355,100 360,100 365,100 370,100 375,100 380,100 385,100 390,100 395,100 
		400,100 405,100 410,100 415,100 420,100 425,100 430,100 435,100 440,100 445,100 450,100 450,95 450,90 450,85 450,80 450,75 
		450,70 450,65 450,60 450,55 450,50 445,50 440,50 435,50 430,50 425,50 420,50 415,50 410,50 405,50 400,50 395,50 390,50 385,50 
		380,50 375,50 370,50 365,50 360,50 355,50 350,50 345,50 340,50 335,50 330,50 325,50 320,50 315,50 310,50 305,50 300,50 295,50 
		290,50 285,50 280,50 275,50 270,50 265,50 260,50 255,50 250,50 245,50 240,50 235,50 230,50 225,50 220,50 215,50 210,50 205,50 
		200,50 195,50 190,50 185,50 180,50 175,50 170,50 165,50 160,50 155,50 150,50 145,50 140,50 135,50 130,50 125,50 120,50 115,50 
		110,50 105,50 100,50 100,55 100,60 100,65 100,70 100,75 100,80 100,85 100,90 100,95 100,100 105,100 	"/>
	<polygon points="595,150 590,150 585,150 580,150 575,150 570,150 565,150 560,150 555,150 550,150 550,155 550,160 550,165 
		550,170 550,175 550,180 550,185 550,190 550,195 550,200 550,205 550,210 550,215 550,220 550,225 550,230 550,235 550,240 
		550,245 550,250 550,255 550,260 550,265 550,270 550,275 550,280 550,285 550,290 550,295 550,300 550,305 550,310 550,315 
		550,320 550,325 550,330 550,335 550,340 550,345 550,350 555,350 560,350 565,350 570,350 575,350 580,350 585,350 590,350 
		595,350 600,350 600,345 600,340 600,335 600,330 600,325 600,320 600,315 600,310 600,305 600,300 600,295 600,290 600,285 
		600,280 600,275 600,270 600,265 600,260 600,255 600,250 600,245 600,240 600,235 600,230 600,225 600,220 600,215 600,210 
		600,205 600,200 600,195 600,190 600,185 600,180 600,175 600,170 600,165 600,160 600,155 600,150 	"/>
	<polygon points="390,200 385,200 380,200 375,200 370,200 365,200 360,200 355,200 350,200 345,200 340,200 335,200 330,200 
		325,200 320,200 315,200 310,200 305,200 300,200 300,205 300,210 300,215 300,220 300,225 300,230 300,235 300,240 300,245 
		300,250 295,250 290,250 285,250 280,250 275,250 270,250 265,250 260,250 255,250 250,250 250,245 250,240 250,235 250,230 
		250,225 250,220 250,215 250,210 250,205 250,200 245,200 240,200 235,200 230,200 225,200 220,200 215,200 210,200 205,200 
		200,200 195,200 190,200 185,200 180,200 175,200 170,200 165,200 160,200 155,200 150,200 150,205 150,210 150,215 150,220 
		150,225 150,230 150,235 150,240 150,245 150,250 150,255 150,260 150,265 150,270 150,275 150,280 150,285 150,290 150,295 
		150,300 150,305 150,310 150,315 150,320 150,325 150,330 150,335 150,340 150,345 150,350 155,350 160,350 165,350 170,350 
		175,350 180,350 185,350 190,350 195,350 200,350 200,355 200,360 200,365 200,370 200,375 200,380 200,385 200,390 200,395 
		200,400 205,400 210,400 215,400 220,400 225,400 230,400 235,400 240,400 245,400 250,400 250,405 250,410 250,415 250,420 
		250,425 250,430 250,435 250,440 250,445 250,450 255,450 260,450 265,450 270,450 275,450 280,450 285,450 290,450 295,450 
		300,450 300,445 300,440 300,435 300,430 300,425 300,420 300,415 300,410 300,405 300,400 305,400 310,400 315,400 320,400 
		325,400 330,400 335,400 340,400 345,400 350,400 350,395 350,390 350,385 350,380 350,375 350,370 350,365 350,360 350,355 
		350,350 355,350 360,350 365,350 370,350 375,350 380,350 385,350 390,350 395,350 400,350 400,345 400,340 400,335 400,330 
		400,325 400,320 400,315 400,310 400,305 400,300 400,295 400,290 400,285 400,280 400,275 400,270 400,265 400,260 400,255 
		400,250 400,245 400,240 400,235 400,230 400,225 400,220 400,215 400,210 400,205 400,200 395,200 	"/>
	<polygon points="540,350 535,350 530,350 525,350 520,350 515,350 510,350 505,350 500,350 500,345 500,340 500,335 500,330 
		500,325 500,320 500,315 500,310 500,305 500,300 500,295 500,290 500,285 500,280 500,275 500,270 500,265 500,260 500,255 
		500,250 500,245 500,240 500,235 500,230 500,225 500,220 500,215 500,210 500,205 500,200 500,195 500,190 500,185 500,180 
		500,175 500,170 500,165 500,160 500,155 500,150 505,150 510,150 515,150 520,150 525,150 530,150 535,150 540,150 545,150 
		550,150 550,145 550,140 550,135 550,130 550,125 550,120 550,115 550,110 550,105 550,100 545,100 540,100 535,100 530,100 
		525,100 520,100 515,100 510,100 505,100 500,100 495,100 490,100 485,100 480,100 475,100 470,100 465,100 460,100 455,100 
		450,100 450,105 450,110 450,115 450,120 450,125 450,130 450,135 450,140 450,145 450,150 450,155 450,160 450,165 450,170 
		450,175 450,180 450,185 450,190 450,195 450,200 450,205 450,210 450,215 450,220 450,225 450,230 450,235 450,240 450,245 
		450,250 450,255 450,260 450,265 450,270 450,275 450,280 450,285 450,290 450,295 450,300 450,305 450,310 450,315 450,320 
		450,325 450,330 450,335 450,340 450,345 450,350 450,355 450,360 450,365 450,370 450,375 450,380 450,385 450,390 450,395 
		450,400 450,405 450,410 450,415 450,420 450,425 450,430 450,435 450,440 450,445 450,450 450,455 450,460 450,465 450,470 
		450,475 450,480 450,485 450,490 450,495 450,500 450,505 450,510 450,515 450,520 450,525 450,530 450,535 450,540 450,545 
		450,550 455,550 460,550 465,550 470,550 475,550 480,550 485,550 490,550 495,550 500,550 500,545 500,540 500,535 500,530 
		500,525 500,520 500,515 500,510 500,505 500,500 500,495 500,490 500,485 500,480 500,475 500,470 500,465 500,460 500,455 
		500,450 500,445 500,440 500,435 500,430 500,425 500,420 500,415 500,410 500,405 500,400 505,400 510,400 515,400 520,400 
		525,400 530,400 535,400 540,400 545,400 550,400 550,395 550,390 550,385 550,380 550,375 550,370 550,365 550,360 550,355 
		550,350 545,350 	"/>
	<polygon points="100,540 100,535 100,530 100,525 100,520 100,515 100,510 100,505 100,500 100,495 100,490 100,485 100,480 
		100,475 100,470 100,465 100,460 100,455 100,450 100,445 100,440 100,435 100,430 100,425 100,420 100,415 100,410 100,405 
		100,400 100,395 100,390 100,385 100,380 100,375 100,370 100,365 100,360 100,355 100,350 100,345 100,340 100,335 100,330 
		100,325 100,320 100,315 100,310 100,305 100,300 100,295 100,290 100,285 100,280 100,275 100,270 100,265 100,260 100,255 
		100,250 100,245 100,240 100,235 100,230 100,225 100,220 100,215 100,210 100,205 100,200 100,195 100,190 100,185 100,180 
		100,175 100,170 100,165 100,160 100,155 100,150 100,145 100,140 100,135 100,130 100,125 100,120 100,115 100,110 100,105 
		100,100 95,100 90,100 85,100 80,100 75,100 70,100 65,100 60,100 55,100 50,100 50,105 50,110 50,115 50,120 50,125 50,130 
		50,135 50,140 50,145 50,150 50,155 50,160 50,165 50,170 50,175 50,180 50,185 50,190 50,195 50,200 50,205 50,210 50,215 50,220 
		50,225 50,230 50,235 50,240 50,245 50,250 50,255 50,260 50,265 50,270 50,275 50,280 50,285 50,290 50,295 50,300 50,305 50,310 
		50,315 50,320 50,325 50,330 50,335 50,340 50,345 50,350 50,355 50,360 50,365 50,370 50,375 50,380 50,385 50,390 50,395 50,400 
		50,405 50,410 50,415 50,420 50,425 50,430 50,435 50,440 50,445 50,450 50,455 50,460 50,465 50,470 50,475 50,480 50,485 50,490 
		50,495 50,500 50,505 50,510 50,515 50,520 50,525 50,530 50,535 50,540 50,545 50,550 55,550 60,550 65,550 70,550 75,550 80,550 
		85,550 90,550 95,550 100,550 100,545 	"/>
	<polygon points="440,550 435,550 430,550 425,550 420,550 415,550 410,550 405,550 400,550 395,550 390,550 385,550 380,550 
		375,550 370,550 365,550 360,550 355,550 350,550 345,550 340,550 335,550 330,550 325,550 320,550 315,550 310,550 305,550 
		300,550 295,550 290,550 285,550 280,550 275,550 270,550 265,550 260,550 255,550 250,550 245,550 240,550 235,550 230,550 
		225,550 220,550 215,550 210,550 205,550 200,550 195,550 190,550 185,550 180,550 175,550 170,550 165,550 160,550 155,550 
		150,550 145,550 140,550 135,550 130,550 125,550 120,550 115,550 110,550 105,550 100,550 100,555 100,560 100,565 100,570 
		100,575 100,580 100,585 100,590 100,595 100,600 105,600 110,600 115,600 120,600 125,600 130,600 135,600 140,600 145,600 
		150,600 155,600 160,600 165,600 170,600 175,600 180,600 185,600 190,600 195,600 200,600 205,600 210,600 215,600 220,600 
		225,600 230,600 235,600 240,600 245,600 250,600 255,600 260,600 265,600 270,600 275,600 280,600 285,600 290,600 295,600 
		300,600 305,600 310,600 315,600 320,600 325,600 330,600 335,600 340,600 345,600 350,600 355,600 360,600 365,600 370,600 
		375,600 380,600 385,600 390,600 395,600 400,600 405,600 410,600 415,600 420,600 425,600 430,600 435,600 440,600 445,600 
		450,600 450,595 450,590 450,585 450,580 450,575 450,570 450,565 450,560 450,555 450,550 445,550 	"/>
</g>
</svg>
