<?xml version="1.0" encoding="utf-8"?>
<!-- Generator: Adobe Illustrator 25.2.3, SVG Export Plug-In . SVG Version: 6.00 Build 0)  -->
<svg version="1.1" id="Layer_1" xmlns="http://www.w3.org/2000/svg" xmlns:xlink="http://www.w3.org/1999/xlink" x="0px" y="0px"
	 viewBox="0 0 650 650" style="enable-background:new 0 0 650 650;" xml:space="preserve">
<defs>
<style>
	path, polygon {
		fill: rgba(20, 20, 24, 0.95);
	}

	@media (prefers-color-scheme:dark) {
		path, polygon {
			fill: rgba(224, 215, 203, 0.95);
		}
	}
</style>
</defs>
<g>
	<polygon points="140,50 135,50 130,50 125,50 120,50 115,50 110,50 105,50 100,50 95,50 90,50 85,50 80,50 75,50 70,50 65,50 
		60,50 55,50 50,50 50,55 50,60 50,65 50,70 50,75 50,80 50,85 50,90 50,95 50,100 50,105 50,110 50,115 50,120 50,125 50,130 
		50,135 50,140 50,145 50,150 50,155 50,160 50,165 50,170 50,175 50,180 50,185 50,190 50,195 50,200 50,205 50,210 50,215 50,220 
		50,225 50,230 50,235 50,240 50,245 50,250 50,255 50,260 50,265 50,270 50,275 50,280 50,285 50,290 50,295 50,300 50,305 50,310 
		50,315 50,320 50,325 50,330 50,335 50,340 50,345 50,350 50,355 50,360 50,365 50,370 50,375 50,380 50,385 50,390 50,395 50,400 
		50,405 50,410 50,415 50,420 50,425 50,430 50,435 50,440 50,445 50,450 50,455 50,460 50,465 50,470 50,475 50,480 50,485 50,490 
		50,495 50,500 50,505 50,510 50,515 50,520 50,525 50,530 50,535 50,540 50,545 50,550 50,555 50,560 50,565 50,570 50,575 50,580 
		50,585 50,590 50,595 50,600 55,600 60,600 65,600 70,600 75,600 80,600 85,600 90,600 95,600 100,600 105,600 110,600 115,600 
		120,600 125,600 130,600 135,600 140,600 145,600 150,600 150,595 150,590 150,585 150,580 150,575 150,570 150,565 150,560 
		150,555 150,550 150,545 150,540 150,535 150,530 150,525 150,520 150,515 150,510 150,505 150,500 150,495 150,490 150,485 
		150,480 150,475 150,470 150,465 150,460 150,455 150,450 150,445 150,440 150,435 150,430 150,425 150,420 150,415 150,410 
		150,405 150,400 150,395 150,390 150,385 150,380 150,375 150,370 150,365 150,360 150,355 150,350 150,345 150,340 150,335 
		150,330 150,325 150,320 150,315 150,310 150,305 150,300 150,295 150,290 150,285 150,280 150,275 150,270 150,265 150,260 
		150,255 150,250 150,245 150,240 150,235 150,230 150,225 150,220 150,215 150,210 150,205 150,200 150,195 150,190 150,185 
		150,180 150,175 150,170 150,165 150,160 150,155 150,150 150,145 150,140 150,135 150,130 150,125 150,120 150,115 150,110 
		150,105 150,100 150,95 150,90 150,85 150,80 150,75 150,70 150,65 150,60 150,55 150,50 145,50 	"/>
	<polygon points="310,100 315,100 320,100 325,100 330,100 335,100 340,100 345,100 350,100 355,100 360,100 365,100 370,100 
		375,100 380,100 385,100 390,100 395,100 400,100 405,100 410,100 415,100 420,100 425,100 430,100 435,100 440,100 445,100 
		450,100 455,100 460,100 465,100 470,100 475,100 480,100 485,100 490,100 495,100 500,100 500,95 500,90 500,85 500,80 500,75 
		500,70 500,65 500,60 500,55 500,50 495,50 490,50 485,50 480,50 475,50 470,50 465,50 460,50 455,50 450,50 445,50 440,50 435,50 
		430,50 425,50 420,50 415,50 410,50 405,50 400,50 395,50 390,50 385,50 380,50 375,50 370,50 365,50 360,50 355,50 350,50 345,50 
		340,50 335,50 330,50 325,50 320,50 315,50 310,50 305,50 300,50 300,55 300,60 300,65 300,70 300,75 300,80 300,85 300,90 300,95 
		300,100 305,100 	"/>
	<polygon points="500,110 500,115 500,120 500,125 500,130 500,135 500,140 500,145 500,150 505,150 510,150 515,150 520,150 
		525,150 530,150 535,150 540,150 545,150 550,150 550,145 550,140 550,135 550,130 550,125 550,120 550,115 550,110 550,105 
		550,100 545,100 540,100 535,100 530,100 525,100 520,100 515,100 510,100 505,100 500,100 500,105 	"/>
	<polygon points="260,150 265,150 270,150 275,150 280,150 285,150 290,150 295,150 300,150 300,145 300,140 300,135 300,130 
		300,125 300,120 300,115 300,110 300,105 300,100 295,100 290,100 285,100 280,100 275,100 270,100 265,100 260,100 255,100 
		250,100 250,105 250,110 250,115 250,120 250,125 250,130 250,135 250,140 250,145 250,150 255,150 	"/>
	<polygon points="595,150 590,150 585,150 580,150 575,150 570,150 565,150 560,150 555,150 550,150 550,155 550,160 550,165 
		550,170 550,175 550,180 550,185 550,190 550,195 550,200 550,205 550,210 550,215 550,220 550,225 550,230 550,235 550,240 
		550,245 550,250 550,255 550,260 550,265 550,270 550,275 550,280 550,285 550,290 550,295 550,300 550,305 550,310 550,315 
		550,320 550,325 550,330 550,335 550,340 550,345 550,350 555,350 560,350 565,350 570,350 575,350 580,350 585,350 590,350 
		595,350 600,350 600,345 600,340 600,335 600,330 600,325 600,320 600,315 600,310 600,305 600,300 600,295 600,290 600,285 
		600,280 600,275 600,270 600,265 600,260 600,255 600,250 600,245 600,240 600,235 600,230 600,225 600,220 600,215 600,210 
		600,205 600,200 600,195 600,190 600,185 600,180 600,175 600,170 600,165 600,160 600,155 600,150 	"/>
	<polygon points="250,340 250,335 250,330 250,325 250,320 250,315 250,310 250,305 250,300 250,295 250,290 250,285 250,280 
		250,275 250,270 250,265 250,260 250,255 250,250 250,245 250,240 250,235 250,230 250,225 250,220 250,215 250,210 250,205 
		250,200 250,195 250,190 250,185 250,180 250,175 250,170 250,165 250,160 250,155 250,150 245,150 240,150 235,150 230,150 
		225,150 220,150 215,150 210,150 205,150 200,150 200,155 200,160 200,165 200,170 200,175 200,180 200,185 200,190 200,195 
		200,200 200,205 200,210 200,215 200,220 200,225 200,230 200,235 200,240 200,245 200,250 200,255 200,260 200,265 200,270 
		200,275 200,280 200,285 200,290 200,295 200,300 200,305 200,310 200,315 200,320 200,325 200,330 200,335 200,340 200,345 
		200,350 205,350 210,350 215,350 220,350 225,350 230,350 235,350 240,350 245,350 250,350 250,345 	"/>
	<polygon points="540,350 535,350 530,350 525,350 520,350 515,350 510,350 505,350 500,350 500,355 500,360 500,365 500,370 
		500,375 500,380 500,385 500,390 500,395 500,400 505,400 510,400 515,400 520,400 525,400 530,400 535,400 540,400 545,400 
		550,400 550,395 550,390 550,385 550,380 550,375 550,370 550,365 550,360 550,355 550,350 545,350 	"/>
	<polygon points="300,390 300,385 300,380 300,375 300,370 300,365 300,360 300,355 300,350 295,350 290,350 285,350 280,350 
		275,350 270,350 265,350 260,350 255,350 250,350 250,355 250,360 250,365 250,370 250,375 250,380 250,385 250,390 250,395 
		250,400 255,400 260,400 265,400 270,400 275,400 280,400 285,400 290,400 295,400 300,400 300,395 	"/>
	<polygon points="490,400 485,400 480,400 475,400 470,400 465,400 460,400 455,400 450,400 445,400 440,400 435,400 430,400 
		425,400 420,400 415,400 410,400 405,400 400,400 395,400 390,400 385,400 380,400 375,400 370,400 365,400 360,400 355,400 
		350,400 345,400 340,400 335,400 330,400 325,400 320,400 315,400 310,400 305,400 300,400 300,405 300,410 300,415 300,420 
		300,425 300,430 300,435 300,440 300,445 300,450 305,450 310,450 315,450 320,450 325,450 330,450 335,450 340,450 345,450 
		350,450 355,450 360,450 365,450 370,450 375,450 380,450 385,450 390,450 395,450 400,450 405,450 410,450 415,450 420,450 
		425,450 430,450 435,450 440,450 445,450 450,450 455,450 460,450 465,450 470,450 475,450 480,450 485,450 490,450 495,450 
		500,450 500,445 500,440 500,435 500,430 500,425 500,420 500,415 500,410 500,405 500,400 495,400 	"/>
</g>
</svg>
