<?xml version="1.0" encoding="utf-8"?>
<!-- Generator: Adobe Illustrator 25.4.1, SVG Export Plug-In . SVG Version: 6.00 Build 0)  -->
<svg version="1.1" id="Layer_1" xmlns="http://www.w3.org/2000/svg" xmlns:xlink="http://www.w3.org/1999/xlink" x="0px" y="0px"
	 viewBox="0 0 650 650" style="enable-background:new 0 0 650 650;" xml:space="preserve">
<defs>
<style>
	path, polygon {
		fill: rgba(20, 20, 24, 0.95);
	}

	@media (prefers-color-scheme:dark) {
		path, polygon {
			fill: rgba(224, 215, 203, 0.95);
		}
	}
</style>
</defs>
<g>
	<path d="M600,200h-50v-50v0h0h-50h0v0v50h-50h0v0v50h0h0v0v0h-50v-50v0h0h-50h0v0v50h-50v-50v0h0h-50h0v0v50v0h0h50v50h-50h0v0v50
		v0h0h50h0v0v-50h50v50v0h0h50h0v0v-50h50v50v0h0h50v50v0h0h50h0v0v-50h50h0v0v-50v-50L600,200L600,200L600,200z M350,250L350,250
		l0,50h0V250z M400,250v50h-50v-50H400z M350,300L350,300l50,0v0H350z M500,200L500,200l0,50h0V200z M550,300v50h-50v-50v0h0h-50
		v-50h0h0v0h50h0v0v-50h50v50V300z M450,300v-50h0L450,300L450,300z M450,300h50v50h0v-50L450,300L450,300z M550,150L550,150l-50,0
		v0H550z M500,200L500,200l-50,0v0H500z M450,250L450,250l-50,0v0H450z M400,200v50h0L400,200l-50,0v0H400z M350,250L350,250l-50,0
		v0H350z M250,200h50v0L250,200L250,200z M250,300h50v0L250,300L250,300z M400,350L400,350l0-50h0V350z M600,200h-50v0L600,200
		L600,200z"/>
	<polygon points="400,400 350,400 300,400 250,400 250,450 250,500 250,550 200,550 200,500 200,450 200,400 200,350 200,300 
		250,300 250,250 200,250 200,200 250,200 250,150 300,150 300,200 350,200 350,150 400,150 400,200 450,200 450,150 500,150 
		500,100 450,100 450,50 400,50 350,50 300,50 250,50 200,50 150,50 100,50 50,50 50,100 50,150 50,200 50,250 50,300 50,350 
		50,400 50,450 50,500 50,550 100,550 150,550 150,600 200,600 250,600 300,600 300,550 300,500 300,450 350,450 400,450 450,450 
		500,450 500,400 450,400 	"/>
</g>
</svg>
