<?xml version="1.0" encoding="utf-8"?>
<!-- Generator: Adobe Illustrator 25.4.1, SVG Export Plug-In . SVG Version: 6.00 Build 0)  -->
<svg version="1.1" id="Layer_1" xmlns="http://www.w3.org/2000/svg" xmlns:xlink="http://www.w3.org/1999/xlink" x="0px" y="0px"
	 viewBox="0 0 650 650" style="enable-background:new 0 0 650 650;" xml:space="preserve">
<defs>
<style>
	path, polygon {
		fill: rgba(20, 20, 24, 0.95);
	}

	@media (prefers-color-scheme:dark) {
		path, polygon {
			fill: rgba(224, 215, 203, 0.95);
		}
	}
</style>
</defs>
<g>
	<rect x="500" y="150" width="50" height="50"/>
	<rect x="250" y="200" width="50" height="50"/>
	<rect x="350" y="200" width="50" height="50"/>
	<rect x="450" y="200" width="50" height="50"/>
	<polygon points="550,200 550,250 550,300 550,350 600,350 600,300 600,250 600,200 	"/>
	<rect x="300" y="250" width="50" height="50"/>
	<rect x="400" y="250" width="50" height="50"/>
	<rect x="250" y="300" width="50" height="50"/>
	<rect x="350" y="300" width="50" height="50"/>
	<rect x="450" y="300" width="50" height="50"/>
	<rect x="500" y="350" width="50" height="50"/>
	<polygon points="400,400 350,400 300,400 250,400 250,450 250,500 250,550 200,550 200,500 200,450 200,400 200,350 200,300 
		250,300 250,250 200,250 200,200 250,200 250,150 300,150 300,200 350,200 350,150 400,150 400,200 450,200 450,150 500,150 
		500,100 450,100 450,50 400,50 350,50 300,50 250,50 200,50 150,50 100,50 50,50 50,100 50,150 50,200 50,250 50,300 50,350 
		50,400 50,450 50,500 50,550 100,550 150,550 150,600 200,600 250,600 300,600 300,550 300,500 300,450 350,450 400,450 450,450 
		500,450 500,400 450,400 	"/>
</g>
</svg>
