<?xml version="1.0" encoding="utf-8"?>
<!-- Generator: Adobe Illustrator 25.4.1, SVG Export Plug-In . SVG Version: 6.00 Build 0)  -->
<svg version="1.1" id="Layer_1" xmlns="http://www.w3.org/2000/svg" xmlns:xlink="http://www.w3.org/1999/xlink" x="0px" y="0px"
	 viewBox="0 0 650 650" style="enable-background:new 0 0 650 650;" xml:space="preserve">
<defs>
<style>
	path, polygon {
		fill: rgba(20, 20, 24, 0.95);
	}

	@media (prefers-color-scheme:dark) {
		path, polygon {
			fill: rgba(224, 215, 203, 0.95);
		}
	}
</style>
</defs>
<g>
	<polygon points="475,170 475,180 475,190 475,200 485,200 495,200 505,200 515,200 525,200 525,190 525,180 525,170 525,160 
		525,150 515,150 505,150 495,150 485,150 475,150 475,160 	"/>
	<polygon points="455,200 445,200 435,200 425,200 425,210 425,220 425,230 425,240 425,250 435,250 445,250 455,250 465,250 
		475,250 475,240 475,230 475,220 475,210 475,200 465,200 	"/>
	<polygon points="565,200 555,200 545,200 535,200 525,200 525,210 525,220 525,230 525,240 525,250 525,260 525,270 525,280 
		525,290 525,300 525,310 525,320 525,330 525,340 525,350 535,350 545,350 555,350 565,350 575,350 575,340 575,330 575,320 
		575,310 575,300 575,290 575,280 575,270 575,260 575,250 575,240 575,230 575,220 575,210 575,200 	"/>
	<polygon points="325,220 325,230 325,240 325,250 335,250 345,250 355,250 365,250 375,250 375,240 375,230 375,220 375,210 
		375,200 365,200 355,200 345,200 335,200 325,200 325,210 	"/>
	<polygon points="405,250 395,250 385,250 375,250 375,260 375,270 375,280 375,290 375,300 385,300 395,300 405,300 415,300 
		425,300 425,290 425,280 425,270 425,260 425,250 415,250 	"/>
	<polygon points="325,280 325,270 325,260 325,250 315,250 305,250 295,250 285,250 275,250 275,260 275,270 275,280 275,290 
		275,300 285,300 295,300 305,300 315,300 325,300 325,290 	"/>
	<polygon points="355,300 345,300 335,300 325,300 325,310 325,320 325,330 325,340 325,350 335,350 345,350 355,350 365,350 
		375,350 375,340 375,330 375,320 375,310 375,300 365,300 	"/>
	<polygon points="425,320 425,330 425,340 425,350 435,350 445,350 455,350 465,350 475,350 475,340 475,330 475,320 475,310 
		475,300 465,300 455,300 445,300 435,300 425,300 425,310 	"/>
	<polygon points="505,350 495,350 485,350 475,350 475,360 475,370 475,380 475,390 475,400 485,400 495,400 505,400 515,400 
		525,400 525,390 525,380 525,370 525,360 525,350 515,350 	"/>
	<polygon points="455,400 445,400 435,400 425,400 415,400 405,400 395,400 385,400 375,400 365,400 355,400 345,400 335,400 
		325,400 315,400 305,400 295,400 285,400 275,400 275,410 275,420 275,430 275,440 275,450 275,460 275,470 275,480 275,490 
		275,500 275,510 275,520 275,530 275,540 275,550 265,550 255,550 245,550 235,550 225,550 225,540 225,530 225,520 225,510 
		225,500 225,490 225,480 225,470 225,460 225,450 225,440 225,430 225,420 225,410 225,400 225,390 225,380 225,370 225,360 
		225,350 235,350 245,350 255,350 265,350 275,350 275,340 275,330 275,320 275,310 275,300 265,300 255,300 245,300 235,300 
		225,300 225,290 225,280 225,270 225,260 225,250 235,250 245,250 255,250 265,250 275,250 275,240 275,230 275,220 275,210 
		275,200 265,200 255,200 245,200 235,200 225,200 225,190 225,180 225,170 225,160 225,150 235,150 245,150 255,150 265,150 
		275,150 275,160 275,170 275,180 275,190 275,200 285,200 295,200 305,200 315,200 325,200 325,190 325,180 325,170 325,160 
		325,150 335,150 345,150 355,150 365,150 375,150 375,160 375,170 375,180 375,190 375,200 385,200 395,200 405,200 415,200 
		425,200 425,190 425,180 425,170 425,160 425,150 435,150 445,150 455,150 465,150 475,150 475,140 475,130 475,120 475,110 
		475,100 465,100 455,100 445,100 435,100 425,100 425,90 425,80 425,70 425,60 425,50 415,50 405,50 395,50 385,50 375,50 365,50 
		355,50 345,50 335,50 325,50 315,50 305,50 295,50 285,50 275,50 265,50 255,50 245,50 235,50 225,50 215,50 205,50 195,50 185,50 
		175,50 165,50 155,50 145,50 135,50 125,50 115,50 105,50 95,50 85,50 75,50 75,60 75,70 75,80 75,90 75,100 75,110 75,120 75,130 
		75,140 75,150 75,160 75,170 75,180 75,190 75,200 75,210 75,220 75,230 75,240 75,250 75,260 75,270 75,280 75,290 75,300 75,310 
		75,320 75,330 75,340 75,350 75,360 75,370 75,380 75,390 75,400 75,410 75,420 75,430 75,440 75,450 75,460 75,470 75,480 75,490 
		75,500 75,510 75,520 75,530 75,540 75,550 85,550 95,550 105,550 115,550 125,550 135,550 145,550 155,550 165,550 175,550 
		175,560 175,570 175,580 175,590 175,600 185,600 195,600 205,600 215,600 225,600 235,600 245,600 255,600 265,600 275,600 
		285,600 295,600 305,600 315,600 325,600 325,590 325,580 325,570 325,560 325,550 325,540 325,530 325,520 325,510 325,500 
		325,490 325,480 325,470 325,460 325,450 335,450 345,450 355,450 365,450 375,450 385,450 395,450 405,450 415,450 425,450 
		435,450 445,450 455,450 465,450 475,450 475,440 475,430 475,420 475,410 475,400 465,400 	"/>
</g>
</svg>
